<svg id="Layer_1" data-name="Layer 1" xmlns="http://www.w3.org/2000/svg" xmlns:xlink="http://www.w3.org/1999/xlink" viewBox="0 0 511 214"><defs><style>.cls-1,.cls-4{fill:none;}.cls-1{stroke:#000;stroke-opacity:0.2;stroke-width:2px;stroke-dasharray:10 10;}.cls-2{fill:url(#linear-gradient);}.cls-3{fill:url(#linear-gradient-2);}</style><linearGradient id="linear-gradient" x1="374.04" y1="186.3" x2="412.47" y2="125.77" gradientTransform="matrix(1, 0, 0, -1, 0, 254)" gradientUnits="userSpaceOnUse"><stop offset="0" stop-color="#fc5c7d"/><stop offset="1" stop-color="#6a82fb"/></linearGradient><linearGradient id="linear-gradient-2" x1="74" y1="84.35" x2="300" y2="84.35" xlink:href="#linear-gradient"/></defs><rect class="cls-1" x="1" y="53" width="371" height="160" rx="9"/><path class="cls-2" d="M367.39,72l.85,1.24Zm137.87-1.43a1.49,1.49,0,0,0,1.81-1.1l3.19-13.12a1.5,1.5,0,0,0-2.92-.71l-2.83,11.66-11.66-2.83a1.5,1.5,0,0,0-.71,2.92Zm-238.76,54,.51,1.41h0l.11,0,.44-.17,1.71-.64c1.49-.57,3.68-1.42,6.46-2.55,5.55-2.26,13.48-5.63,23-10.07a503.94,503.94,0,0,0,69.49-39.22l-1.69-2.48a501.68,501.68,0,0,1-69.07,39c-9.45,4.41-17.33,7.76-22.84,10-2.76,1.12-4.93,2-6.4,2.53l-1.68.63-.43.16-.11,0h0ZM368.24,73.21c26.21-17.87,55.24-27.11,80.23-27.63s45.74,7.67,55.86,24.29l2.57-1.56C496,50.42,474,42,448.41,42.58s-55.22,10-81.86,28.15Z" transform="translate(0 -38)"/><path class="cls-3" d="M109.93,187.07H91.06L88,196H75.15l18.29-50.54H107.7L126,196H113Zm-3.17-9.5-6.26-18.51-6.2,18.51Zm37.1-16.06a12.65,12.65,0,0,1,5-4.53,15.42,15.42,0,0,1,7.42-1.73,16.64,16.64,0,0,1,9,2.52,17.21,17.21,0,0,1,6.33,7.2A23.62,23.62,0,0,1,174,175.84a24,24,0,0,1-2.38,10.94,17.75,17.75,0,0,1-6.33,7.28,16.64,16.64,0,0,1-9,2.52,15.83,15.83,0,0,1-7.42-1.66,13.31,13.31,0,0,1-5-4.54V196H131.55V142.72h12.31Zm17.57,14.33a9.73,9.73,0,0,0-2.59-7.2,8.26,8.26,0,0,0-6.27-2.66,8.41,8.41,0,0,0-6.26,2.66,11.75,11.75,0,0,0,0,14.54,8.69,8.69,0,0,0,12.53,0A10.22,10.22,0,0,0,161.43,175.84Zm37.28,20.74a22.4,22.4,0,0,1-10.66-2.52,18.81,18.81,0,0,1-7.42-7.2,21.82,21.82,0,0,1-2.66-11A21.08,21.08,0,0,1,180.71,165a18.43,18.43,0,0,1,7.48-7.27,23.81,23.81,0,0,1,21.32,0A18.49,18.49,0,0,1,217,165a22.83,22.83,0,0,1-.07,21.82,18.47,18.47,0,0,1-7.56,7.2A22.39,22.39,0,0,1,198.71,196.58Zm0-10.66a7.89,7.89,0,0,0,6-2.59q2.52-2.6,2.52-7.42c0-3.21-.82-5.69-2.45-7.41a7.67,7.67,0,0,0-5.9-2.6,7.78,7.78,0,0,0-6,2.6q-2.37,2.52-2.37,7.41c0,3.22.76,5.69,2.3,7.42A7.67,7.67,0,0,0,198.71,185.92Zm67.22-30.1V196H253.62v-5.47a13.87,13.87,0,0,1-5.11,4.32,15.65,15.65,0,0,1-7.06,1.58,16.12,16.12,0,0,1-8.13-2,14,14,0,0,1-5.47-6,20.15,20.15,0,0,1-1.95-9.14V155.82h12.24v21.82a8.8,8.8,0,0,0,2.09,6.26,7.31,7.31,0,0,0,5.62,2.24,7.4,7.4,0,0,0,5.68-2.24,8.76,8.76,0,0,0,2.09-6.26V155.82Zm31.24,29.74V196H290.9q-6.69,0-10.44-3.24T276.72,182v-16h-4.89V155.82h4.89V146H289v9.79h8.07v10.23H289v16.13a3.36,3.36,0,0,0,.87,2.59,4.19,4.19,0,0,0,2.88.79Z" transform="translate(0 -38)"/><rect class="cls-4" width="511" height="213"/></svg>