<svg width="256" height="118" viewBox="0 0 256 118" fill="none" xmlns="http://www.w3.org/2000/svg">
<rect x="1" y="1" width="254" height="116" rx="9" stroke="black" stroke-opacity="0.2" stroke-width="2" stroke-dasharray="10 10"/>
<path d="M60.976 76H69.184V62.368H79.456V55.984H69.184V48.88H82.912V42.304H60.976V76ZM85.594 62.56C85.594 71.008 90.826 76.384 97.354 76.384C101.338 76.384 104.17 74.56 105.658 72.208V76H113.866V49.216H105.658V53.008C104.218 50.656 101.386 48.832 97.402 48.832C90.826 48.832 85.594 54.112 85.594 62.56ZM105.658 62.608C105.658 66.88 102.922 69.232 99.802 69.232C96.73 69.232 93.946 66.832 93.946 62.56C93.946 58.288 96.73 55.984 99.802 55.984C102.922 55.984 105.658 58.336 105.658 62.608ZM126.812 59.056C126.812 53.056 130.268 49.264 135.74 49.264C141.116 49.264 144.62 53.056 144.62 59.056C144.62 64.96 141.116 68.848 135.74 68.848C130.268 68.848 126.812 64.96 126.812 59.056ZM152.972 59.056C152.972 48.928 145.34 41.824 135.74 41.824C126.188 41.824 118.412 48.928 118.412 59.056C118.412 69.184 126.188 76.336 135.74 76.336C137.036 76.336 138.284 76.192 139.484 75.952L143.804 81.76H153.74L146.348 72.88C150.38 69.808 152.972 64.96 152.972 59.056ZM162.528 55.168L167.904 42.304H159.504L157.008 55.168H162.528ZM194.47 68.224C194.326 58.24 179.83 61.264 179.83 56.992C179.83 55.696 180.886 54.928 182.806 54.928C185.11 54.928 186.502 56.128 186.742 57.952H194.326C193.798 52.672 189.958 48.832 183.046 48.832C176.038 48.832 172.15 52.576 172.15 57.136C172.15 66.976 186.742 63.856 186.742 68.176C186.742 69.376 185.638 70.336 183.526 70.336C181.27 70.336 179.59 69.088 179.398 67.216H171.286C171.67 72.4 176.47 76.384 183.622 76.384C190.342 76.384 194.47 72.88 194.47 68.224Z" fill="url(#paint0_linear_174_12)"/>
<defs>
<linearGradient id="paint0_linear_174_12" x1="58" y1="59.4444" x2="197" y2="59.4444" gradientUnits="userSpaceOnUse">
<stop stop-color="#FC5C7D"/>
<stop offset="1" stop-color="#6A82FB"/>
</linearGradient>
</defs>
</svg>
