<svg width="325" height="137" viewBox="0 0 325 137" fill="none" xmlns="http://www.w3.org/2000/svg">
<path d="M83.976 70.2252H77.688L76.68 73.2012H72.384L78.48 56.3532H83.232L89.328 73.2012H84.984L83.976 70.2252ZM82.92 67.0572L80.832 60.8892L78.768 67.0572H82.92ZM95.2873 56.3532V73.2012H91.1833V56.3532H95.2873ZM119.163 56.3532L113.187 73.2012H108.051L102.075 56.3532H106.443L110.619 69.0732L114.819 56.3532H119.163ZM122.943 58.4172C122.223 58.4172 121.631 58.2092 121.167 57.7932C120.719 57.3612 120.495 56.8332 120.495 56.2092C120.495 55.5692 120.719 55.0412 121.167 54.6252C121.631 54.1932 122.223 53.9772 122.943 53.9772C123.647 53.9772 124.223 54.1932 124.671 54.6252C125.135 55.0412 125.367 55.5692 125.367 56.2092C125.367 56.8332 125.135 57.3612 124.671 57.7932C124.223 58.2092 123.647 58.4172 122.943 58.4172ZM124.983 59.8092V73.2012H120.879V59.8092H124.983ZM127.141 66.4812C127.141 65.1052 127.397 63.8972 127.909 62.8572C128.437 61.8172 129.149 61.0172 130.045 60.4572C130.941 59.8972 131.941 59.6172 133.045 59.6172C133.925 59.6172 134.725 59.8012 135.445 60.1692C136.181 60.5372 136.757 61.0332 137.173 61.6572V55.4412H141.277V73.2012H137.173V71.2812C136.789 71.9212 136.237 72.4332 135.517 72.8172C134.813 73.2012 133.989 73.3932 133.045 73.3932C131.941 73.3932 130.941 73.1132 130.045 72.5532C129.149 71.9772 128.437 71.1692 127.909 70.1292C127.397 69.0732 127.141 67.8572 127.141 66.4812ZM137.173 66.5052C137.173 65.4812 136.885 64.6732 136.309 64.0812C135.749 63.4892 135.061 63.1932 134.245 63.1932C133.429 63.1932 132.733 63.4892 132.157 64.0812C131.597 64.6572 131.317 65.4572 131.317 66.4812C131.317 67.5052 131.597 68.3212 132.157 68.9292C132.733 69.5212 133.429 69.8172 134.245 69.8172C135.061 69.8172 135.749 69.5212 136.309 68.9292C136.885 68.3372 137.173 67.5292 137.173 66.5052ZM156.87 66.2892C156.87 66.6732 156.846 67.0732 156.798 67.4892H147.51C147.574 68.3212 147.838 68.9612 148.302 69.4092C148.782 69.8412 149.366 70.0572 150.054 70.0572C151.078 70.0572 151.79 69.6252 152.19 68.7612H156.558C156.334 69.6412 155.926 70.4332 155.334 71.1372C154.758 71.8412 154.03 72.3932 153.15 72.7932C152.27 73.1932 151.286 73.3932 150.198 73.3932C148.886 73.3932 147.718 73.1132 146.694 72.5532C145.67 71.9932 144.87 71.1932 144.294 70.1532C143.718 69.1132 143.43 67.8972 143.43 66.5052C143.43 65.1132 143.71 63.8972 144.27 62.8572C144.846 61.8172 145.646 61.0172 146.67 60.4572C147.694 59.8972 148.87 59.6172 150.198 59.6172C151.494 59.6172 152.646 59.8892 153.654 60.4332C154.662 60.9772 155.446 61.7532 156.006 62.7612C156.582 63.7692 156.87 64.9452 156.87 66.2892ZM152.67 65.2092C152.67 64.5052 152.43 63.9452 151.95 63.5292C151.47 63.1132 150.87 62.9052 150.15 62.9052C149.462 62.9052 148.878 63.1052 148.398 63.5052C147.934 63.9052 147.646 64.4732 147.534 65.2092H152.67ZM165.131 73.3932C163.819 73.3932 162.635 73.1132 161.579 72.5532C160.539 71.9932 159.715 71.1932 159.107 70.1532C158.515 69.1132 158.219 67.8972 158.219 66.5052C158.219 65.1292 158.523 63.9212 159.131 62.8812C159.739 61.8252 160.571 61.0172 161.627 60.4572C162.683 59.8972 163.867 59.6172 165.179 59.6172C166.491 59.6172 167.675 59.8972 168.731 60.4572C169.787 61.0172 170.619 61.8252 171.227 62.8812C171.835 63.9212 172.139 65.1292 172.139 66.5052C172.139 67.8812 171.827 69.0972 171.203 70.1532C170.595 71.1932 169.755 71.9932 168.683 72.5532C167.627 73.1132 166.443 73.3932 165.131 73.3932ZM165.131 69.8412C165.915 69.8412 166.579 69.5532 167.123 68.9772C167.683 68.4012 167.963 67.5772 167.963 66.5052C167.963 65.4332 167.691 64.6092 167.147 64.0332C166.619 63.4572 165.963 63.1692 165.179 63.1692C164.379 63.1692 163.715 63.4572 163.187 64.0332C162.659 64.5932 162.395 65.4172 162.395 66.5052C162.395 67.5772 162.651 68.4012 163.163 68.9772C163.691 69.5532 164.347 69.8412 165.131 69.8412ZM183.434 56.3532V66.4332C183.434 67.4412 183.682 68.2172 184.178 68.7612C184.674 69.3052 185.402 69.5772 186.362 69.5772C187.322 69.5772 188.058 69.3052 188.57 68.7612C189.082 68.2172 189.338 67.4412 189.338 66.4332V56.3532H193.442V66.4092C193.442 67.9132 193.122 69.1852 192.482 70.2252C191.842 71.2652 190.978 72.0492 189.89 72.5772C188.818 73.1052 187.618 73.3692 186.29 73.3692C184.962 73.3692 183.77 73.1132 182.714 72.6012C181.674 72.0732 180.85 71.2892 180.242 70.2492C179.634 69.1932 179.33 67.9132 179.33 66.4092V56.3532H183.434ZM200.428 61.7052C200.828 61.0812 201.38 60.5772 202.084 60.1932C202.788 59.8092 203.612 59.6172 204.556 59.6172C205.66 59.6172 206.66 59.8972 207.556 60.4572C208.452 61.0172 209.156 61.8172 209.668 62.8572C210.196 63.8972 210.46 65.1052 210.46 66.4812C210.46 67.8572 210.196 69.0732 209.668 70.1292C209.156 71.1692 208.452 71.9772 207.556 72.5532C206.66 73.1132 205.66 73.3932 204.556 73.3932C203.628 73.3932 202.804 73.2012 202.084 72.8172C201.38 72.4332 200.828 71.9372 200.428 71.3292V79.5852H196.324V59.8092H200.428V61.7052ZM206.284 66.4812C206.284 65.4572 205.996 64.6572 205.42 64.0812C204.86 63.4892 204.164 63.1932 203.332 63.1932C202.516 63.1932 201.82 63.4892 201.244 64.0812C200.684 64.6732 200.404 65.4812 200.404 66.5052C200.404 67.5292 200.684 68.3372 201.244 68.9292C201.82 69.5212 202.516 69.8172 203.332 69.8172C204.148 69.8172 204.844 69.5212 205.42 68.9292C205.996 68.3212 206.284 67.5052 206.284 66.4812ZM218.061 73.3932C216.893 73.3932 215.853 73.1932 214.941 72.7932C214.029 72.3932 213.309 71.8492 212.781 71.1612C212.253 70.4572 211.957 69.6732 211.893 68.8092H215.949C215.997 69.2732 216.213 69.6492 216.597 69.9372C216.981 70.2252 217.453 70.3692 218.013 70.3692C218.525 70.3692 218.917 70.2732 219.189 70.0812C219.477 69.8732 219.621 69.6092 219.621 69.2892C219.621 68.9052 219.421 68.6252 219.021 68.4492C218.621 68.2572 217.973 68.0492 217.077 67.8252C216.117 67.6012 215.317 67.3692 214.677 67.1292C214.037 66.8732 213.485 66.4812 213.021 65.9532C212.557 65.4092 212.325 64.6812 212.325 63.7692C212.325 63.0012 212.533 62.3052 212.949 61.6812C213.381 61.0412 214.005 60.5372 214.821 60.1692C215.653 59.8012 216.637 59.6172 217.773 59.6172C219.453 59.6172 220.773 60.0332 221.733 60.8652C222.709 61.6972 223.269 62.8012 223.413 64.1772H219.621C219.557 63.7132 219.349 63.3452 218.997 63.0732C218.661 62.8012 218.213 62.6652 217.653 62.6652C217.173 62.6652 216.805 62.7612 216.549 62.9532C216.293 63.1292 216.165 63.3772 216.165 63.6972C216.165 64.0812 216.365 64.3692 216.765 64.5612C217.181 64.7532 217.821 64.9452 218.685 65.1372C219.677 65.3932 220.485 65.6492 221.109 65.9052C221.733 66.1452 222.277 66.5452 222.741 67.1052C223.221 67.6492 223.469 68.3852 223.485 69.3132C223.485 70.0972 223.261 70.8012 222.813 71.4252C222.381 72.0332 221.749 72.5132 220.917 72.8652C220.101 73.2172 219.149 73.3932 218.061 73.3932ZM225.18 66.5052C225.18 65.1132 225.46 63.8972 226.02 62.8572C226.596 61.8172 227.388 61.0172 228.396 60.4572C229.42 59.8972 230.588 59.6172 231.9 59.6172C233.58 59.6172 234.98 60.0572 236.1 60.9372C237.236 61.8172 237.98 63.0572 238.332 64.6572H233.964C233.596 63.6332 232.884 63.1212 231.828 63.1212C231.076 63.1212 230.476 63.4172 230.028 64.0092C229.58 64.5852 229.356 65.4172 229.356 66.5052C229.356 67.5932 229.58 68.4332 230.028 69.0252C230.476 69.6012 231.076 69.8892 231.828 69.8892C232.884 69.8892 233.596 69.3772 233.964 68.3532H238.332C237.98 69.9212 237.236 71.1532 236.1 72.0492C234.964 72.9452 233.564 73.3932 231.9 73.3932C230.588 73.3932 229.42 73.1132 228.396 72.5532C227.388 71.9932 226.596 71.1932 226.02 70.1532C225.46 69.1132 225.18 67.8972 225.18 66.5052ZM239.711 66.4812C239.711 65.1052 239.967 63.8972 240.479 62.8572C241.007 61.8172 241.719 61.0172 242.615 60.4572C243.511 59.8972 244.511 59.6172 245.615 59.6172C246.559 59.6172 247.383 59.8092 248.087 60.1932C248.807 60.5772 249.359 61.0812 249.743 61.7052V59.8092H253.847V73.2012H249.743V71.3052C249.343 71.9292 248.783 72.4332 248.063 72.8172C247.359 73.2012 246.535 73.3932 245.591 73.3932C244.503 73.3932 243.511 73.1132 242.615 72.5532C241.719 71.9772 241.007 71.1692 240.479 70.1292C239.967 69.0732 239.711 67.8572 239.711 66.4812ZM249.743 66.5052C249.743 65.4812 249.455 64.6732 248.879 64.0812C248.319 63.4892 247.631 63.1932 246.815 63.1932C245.999 63.1932 245.303 63.4892 244.727 64.0812C244.167 64.6572 243.887 65.4572 243.887 66.4812C243.887 67.5052 244.167 68.3212 244.727 68.9292C245.303 69.5212 245.999 69.8172 246.815 69.8172C247.631 69.8172 248.319 69.5212 248.879 68.9292C249.455 68.3372 249.743 67.5292 249.743 66.5052ZM260.92 55.4412V73.2012H256.816V55.4412H260.92ZM276.518 66.2892C276.518 66.6732 276.494 67.0732 276.446 67.4892H267.158C267.222 68.3212 267.486 68.9612 267.95 69.4092C268.43 69.8412 269.014 70.0572 269.702 70.0572C270.726 70.0572 271.438 69.6252 271.838 68.7612H276.206C275.982 69.6412 275.574 70.4332 274.982 71.1372C274.406 71.8412 273.678 72.3932 272.798 72.7932C271.918 73.1932 270.934 73.3932 269.846 73.3932C268.534 73.3932 267.366 73.1132 266.342 72.5532C265.318 71.9932 264.518 71.1932 263.942 70.1532C263.366 69.1132 263.078 67.8972 263.078 66.5052C263.078 65.1132 263.358 63.8972 263.918 62.8572C264.494 61.8172 265.294 61.0172 266.318 60.4572C267.342 59.8972 268.518 59.6172 269.846 59.6172C271.142 59.6172 272.294 59.8892 273.302 60.4332C274.31 60.9772 275.094 61.7532 275.654 62.7612C276.23 63.7692 276.518 64.9452 276.518 66.2892ZM272.318 65.2092C272.318 64.5052 272.078 63.9452 271.598 63.5292C271.118 63.1132 270.518 62.9052 269.798 62.9052C269.11 62.9052 268.526 63.1052 268.046 63.5052C267.582 63.9052 267.294 64.4732 267.182 65.2092H272.318ZM282.787 62.0412C283.267 61.3052 283.867 60.7292 284.587 60.3132C285.307 59.8812 286.107 59.6652 286.987 59.6652V64.0092H285.859C284.835 64.0092 284.067 64.2332 283.555 64.6812C283.043 65.1132 282.787 65.8812 282.787 66.9852V73.2012H278.683V59.8092H282.787V62.0412Z" fill="url(#paint0_linear_174_11)"/>
<rect x="36" y="21" width="288" height="87" rx="9" stroke="black" stroke-opacity="0.2" stroke-width="2" stroke-dasharray="10 10"/>
<path d="M16.6093 130.353C-6.563 103.775 21.9489 59.0758 70.1736 38.3697C112.056 20.3871 184.035 8.13707 244.633 14.9089C265.656 17.2582 316.042 26.0464 313.682 51.7516C311.718 73.1439 298.251 85.8628 263.664 99.5506C224.7 114.971 169.17 121.585 124 122.243C97.8686 122.624 70.2073 119.597 49.5607 112.617C9.89894 99.2092 12.9499 67.6498 33.9141 35.2189" stroke="url(#paint1_linear_174_11)" stroke-width="3" stroke-linecap="round"/>
<defs>
<linearGradient id="paint0_linear_174_11" x1="72" y1="65.4234" x2="288" y2="65.4234" gradientUnits="userSpaceOnUse">
<stop stop-color="#FC5C7D"/>
<stop offset="1" stop-color="#6A82FB"/>
</linearGradient>
<linearGradient id="paint1_linear_174_11" x1="119.3" y1="21.6623" x2="207.985" y2="134.976" gradientUnits="userSpaceOnUse">
<stop stop-color="#FC5C7D"/>
<stop offset="1" stop-color="#6A82FB"/>
</linearGradient>
</defs>
</svg>
